<?xml version="1.0" standalone="no"?>
<!DOCTYPE svg PUBLIC "-//W3C//DTD SVG 20010904//EN"
 "http://www.w3.org/TR/2001/REC-SVG-20010904/DTD/svg10.dtd">
<svg version="1.0" xmlns="http://www.w3.org/2000/svg"
 width="500.000000pt" height="500.000000pt" viewBox="0 0 500.000000 500.000000"
 preserveAspectRatio="xMidYMid meet">
<metadata>
Created by potrace 1.14, written by Peter Selinger 2001-2017
</metadata>
<g transform="translate(0.000000,500.000000) scale(0.100000,-0.100000)"
fill="#000000" stroke="none">
<path d="M2255 4940 c-16 -5 -93 -21 -170 -35 -584 -113 -1121 -446 -1485
-923 -30 -40 -61 -72 -68 -72 -7 0 -20 -4 -30 -9 -9 -6 -33 -13 -53 -16 -21
-3 -53 -17 -73 -30 -20 -14 -43 -25 -50 -25 -17 0 -47 -16 -116 -62 -97 -65
-109 -81 -71 -93 47 -15 139 -148 143 -207 1 -13 -22 -93 -50 -178 -54 -165
-96 -336 -108 -435 -3 -33 -8 -69 -11 -80 -2 -11 -6 -114 -8 -230 -5 -287 20
-480 95 -739 l29 -99 -24 -58 c-31 -74 -78 -153 -122 -207 l-35 -43 73 -69
c40 -39 79 -70 86 -70 7 0 27 -13 46 -30 34 -29 189 -107 258 -129 27 -9 50
-29 87 -79 240 -322 606 -610 972 -766 36 -15 74 -32 85 -37 78 -35 389 -120
490 -133 251 -33 621 -33 805 -2 345 60 654 181 944 371 522 342 906 892 1040
1490 31 139 35 157 42 230 3 33 7 71 10 85 16 92 9 447 -11 580 -4 25 -9 59
-10 76 -11 102 -85 356 -152 519 -237 583 -712 1065 -1294 1313 -149 64 -217
87 -374 127 -131 33 -154 38 -255 51 -30 4 -60 8 -67 8 -7 1 -16 5 -19 9 -10
10 -512 7 -549 -3z"/>
</g>
</svg>
